PathFileType	4	(X/Y/Z)	Run_200 02
DataRate	CameraRate	NumFrames	NumMarkers	Units	OrigDataRate	OrigDataStartFrame	OrigNumFrames
100	100	5	42	mm	100	282	128
Frame#	Time	RASI			LPSI			RPSI			RTH2			RTH3			LTH1			LTH2			LTH3			RTB1			RTB2			LTB1			LTB2			LTB3			RCAL			RMT5			LCAL			LTOE			LMT5			LACR			RACR			CLAV			C7			RUA1			RUA2			RUA3			RLEL			LUA1			LUA2			LUA3			LLEL			RFAsuperior			RFAradius			RFAulna			LFAsuperior			LFAradius			LFAulna			RTOE			RTH1			LMEL			RTB3			RMEL			LASI		
		X1	Y1	Z1	X2	Y2	Z2	X3	Y3	Z3	X4	Y4	Z4	X5	Y5	Z5	X6	Y6	Z6	X7	Y7	Z7	X8	Y8	Z8	X9	Y9	Z9	X10	Y10	Z10	X11	Y11	Z11	X12	Y12	Z12	X13	Y13	Z13	X14	Y14	Z14	X15	Y15	Z15	X16	Y16	Z16	X17	Y17	Z17	X18	Y18	Z18	X19	Y19	Z19	X20	Y20	Z20	X21	Y21	Z21	X22	Y22	Z22	X23	Y23	Z23	X24	Y24	Z24	X25	Y25	Z25	X26	Y26	Z26	X27	Y27	Z27	X28	Y28	Z28	X29	Y29	Z29	X30	Y30	Z30	X31	Y31	Z31	X32	Y32	Z32	X33	Y33	Z33	X34	Y34	Z34	X35	Y35	Z35	X36	Y36	Z36	X37	Y37	Z37	X38	Y38	Z38	X39	Y39	Z39	X40	Y40	Z40	X41	Y41	Z41	X42	Y42	Z42	

282	  2.820000	1050.475635	1092.719305	-227.891637	886.732668	1149.246283	-411.581549	888.067481	1143.023833	-299.007568	877.832472	826.445360	-206.191490	888.713405	671.484663	-224.211331	1006.572157	966.768650	-537.235986	988.836597	802.669919	-488.919852	1089.021686	698.491582	-485.815479	848.937915	414.156771	-301.398601	757.649864	407.110628	-235.795366	1172.017162	483.038895	-429.933300	1068.253445	388.745302	-475.753301	1112.200548	274.262934	-418.884862	569.128376	214.684021	-317.327220	704.166229	 65.173220	-265.303515	970.988240	151.967754	-383.293869	1206.766158	125.506753	-392.167406	1150.334219	 76.067609	-473.876004	1013.995187	1577.274365	-508.688375	1075.137294	1553.061017	-197.551338	1107.014905	1520.654651	-332.919041	982.760275	1590.396237	-346.411323	992.981990	1451.080548	-112.813307	1043.766033	1390.125295	-105.521944	999.438116	1305.238773	-54.925291	982.949501	1239.300854	-30.687844	892.826330	1506.265835	-552.355542	905.346493	1428.910863	-588.495254	818.071686	1383.220206	-604.322944	788.887134	1320.435799	-622.968552	1081.128206	1220.256369	-72.533378	1192.379320	1246.430842	-211.808829	1208.511690	1192.602906	-169.511598	857.316412	1275.236435	-627.475951	1033.033394	1291.063283	-563.342444	1026.654406	1222.339975	-586.290152	753.847825	 70.586508	-362.715331	956.175635	961.726582	-184.173469	784.100778	1292.972189	-535.852509	735.283943	263.036686	-320.298996	959.577084	1220.206215	-116.561992	1044.772109	1088.107147	-479.158881	
283	  2.830000	1051.733018	1095.900999	-228.444082	887.616325	1152.536544	-411.518945	889.194473	1146.245498	-298.941557	877.212736	830.775112	-205.728673	885.914878	675.959846	-223.802085	1006.246249	969.441980	-537.985604	985.702709	805.037285	-488.878909	1083.959585	699.077913	-486.068601	841.661415	418.812031	-300.111246	749.880301	413.556993	-235.096042	1173.009008	485.129431	-428.250512	1076.032118	383.954738	-473.844954	1126.885037	272.984028	-415.454476	560.539650	226.319247	-316.150286	687.788579	 69.163850	-264.726544	994.254039	141.259354	-379.934520	1231.085889	132.233587	-384.788119	1179.893715	 75.870207	-465.550767	1015.037677	1580.969876	-508.750692	1076.296373	1556.758007	-198.411350	1107.690831	1523.929882	-333.652224	983.464316	1593.681902	-346.618375	994.326695	1455.294340	-113.124031	1045.263815	1394.374409	-105.771262	1001.320258	1309.812136	-54.396607	984.931501	1243.702007	-30.192852	893.473585	1511.004373	-552.953591	906.111621	1433.130484	-588.691666	818.948278	1386.897774	-604.357613	790.220297	1323.562134	-622.751431	1082.479368	1226.199638	-73.736594	1191.247856	1254.424834	-214.043126	1209.112532	1200.410279	-172.726297	859.466808	1280.104574	-627.629071	1035.030576	1300.026742	-564.472807	1030.143499	1230.790634	-586.789049	737.295387	 72.011830	-362.350363	956.846403	965.125714	-184.071670	786.263382	1295.688914	-535.614509	726.017753	269.235288	-319.038428	960.463833	1224.714551	-115.885154	1045.549785	1091.622269	-479.540976	
284	  2.840000	1052.883069	1098.167642	-229.216289	888.465238	1154.773393	-411.636233	890.214489	1148.553957	-299.098408	877.472471	834.157430	-205.329022	884.575704	679.399877	-223.401831	1006.209754	971.080366	-538.309377	983.495747	806.679575	-488.731849	1079.179647	698.629922	-486.416321	835.944890	422.506677	-298.741739	743.727316	419.393692	-234.231669	1173.128041	486.172624	-426.772247	1082.523776	379.214784	-471.798846	1139.788062	271.789448	-412.245550	552.979409	237.918708	-314.587071	671.970078	 73.492795	-264.054044	1015.799369	131.958213	-376.549396	1252.443730	139.240301	-378.077529	1206.567174	 76.574699	-457.496705	1015.922783	1584.047099	-508.825528	1077.120779	1559.714487	-199.129392	1108.240794	1526.430350	-334.225897	984.024835	1596.146574	-346.871602	995.449870	1458.616219	-113.401531	1046.519369	1397.697862	-106.126620	1002.668814	1313.491837	-53.997741	986.305660	1247.363534	-29.629274	894.229903	1514.484955	-553.778207	907.229004	1436.174072	-588.967654	820.267475	1389.212525	-604.608194	792.183250	1325.256951	-622.790945	1083.250314	1230.578952	-74.499430	1189.771843	1260.143207	-215.610688	1209.003118	1205.632945	-175.618470	862.313799	1283.744802	-627.875350	1037.427503	1308.090952	-565.282570	1034.342351	1238.481465	-587.200552	721.169202	 73.922987	-361.734055	957.760557	967.877812	-183.741634	788.909945	1296.992428	-535.675148	717.691025	274.955779	-317.512325	960.909799	1228.377897	-115.179305	1046.457112	1094.055285	-479.670757	
285	  2.850000	1053.890014	1099.514308	-230.187481	889.323883	1155.919406	-411.962660	891.091544	1149.943230	-299.456342	878.439272	836.352771	-204.995442	884.670650	681.577087	-223.032009	1006.593403	971.778795	-538.277755	982.253988	807.553248	-488.399425	1074.874429	697.329572	-486.487608	831.879465	425.110662	-297.472630	739.338098	424.444008	-233.188648	1172.634434	486.225278	-425.579049	1087.606004	374.584369	-469.507400	1150.740399	270.601703	-409.405528	546.376373	249.435868	-312.467917	656.735113	 78.077657	-263.362008	1034.934349	124.225649	-373.214376	1270.556646	145.747776	-372.474709	1229.476343	 77.784766	-450.259331	1016.613676	1586.350362	-508.841150	1077.588986	1561.770780	-199.812076	1108.573057	1528.097750	-334.724757	984.377775	1597.744441	-347.174154	996.223806	1460.993608	-113.675464	1047.349272	1400.110584	-106.524904	1003.333615	1316.315798	-53.744174	986.934429	1250.235122	-29.106740	895.059623	1516.540409	-554.810906	908.717995	1437.882531	-589.386014	822.038671	1390.049106	-605.111006	794.764394	1325.416908	-623.144992	1083.373917	1233.380591	-74.954738	1187.974490	1263.711641	-216.399007	1208.154496	1208.434200	-178.023226	865.889460	1286.050229	-628.302539	1040.263934	1315.152379	-565.784269	1039.258826	1245.448442	-587.570156	705.634514	 76.423364	-360.870451	958.862168	969.861834	-183.395373	792.088783	1296.788866	-536.025059	710.407044	280.176793	-315.883087	960.768848	1231.145090	-114.501898	1047.509772	1095.451052	-479.684579	
286	  2.860000	1054.758436	1099.932925	-231.357414	890.223081	1155.957713	-412.517986	891.829251	1150.403674	-300.009649	880.021668	837.207114	-204.624736	886.214899	682.315102	-222.632534	1007.465156	971.579760	-538.111607	981.648600	807.466474	-488.040936	1071.095959	695.207268	-486.239370	829.432561	426.553214	-296.458825	736.817017	428.593073	-231.917354	1171.820861	485.411287	-424.426304	1091.417399	370.142800	-467.012997	1159.589616	269.309461	-406.864583	540.515629	260.777479	-309.699797	642.140991	 82.889315	-262.615046	1050.896207	118.005201	-369.897587	1285.128754	150.944245	-368.145631	1247.806155	 79.057357	-444.408303	1017.088558	1587.602348	-508.837267	1077.698725	1562.731728	-200.582547	1108.643407	1528.888289	-335.178068	984.479838	1598.410265	-347.554168	996.357285	1462.381802	-114.070605	1047.475207	1401.635180	-106.857042	1003.156436	1318.257286	-53.656606	986.650744	1252.215809	-28.732735	895.959374	1517.080557	-556.005299	910.536309	1438.166759	-589.983354	824.277877	1389.279076	-605.900552	797.997372	1323.950424	-623.892724	1082.717667	1234.607952	-75.234885	1185.952019	1265.013898	-216.685198	1206.540996	1209.008435	-179.683147	870.213248	1286.906404	-628.964282	1043.585617	1321.154285	-566.105221	1044.806043	1251.569092	-587.761353	690.804697	 79.546154	-359.766541	960.116553	970.957086	-183.181940	795.928365	1294.962901	-536.704647	704.074523	284.931315	-314.232599	959.872865	1233.004638	-113.918403	1048.737704	1095.892457	-479.712024	
